<svg xmlns="http://www.w3.org/2000/svg" viewBox="0 0 336.3 63" enable-background="new 0 0 336.3 63"><style type="text/css">.st0{fill:#12252C;} .st1{fill:#3B6E8F;}</style><path class="st0" d="M16.4 11.5c0 2.3-.9 4.3-2.5 5.8 1.6 1.5 2.5 3.6 2.5 5.9v3.4c0 4.5-3.7 8.1-8.1 8.1h-5.9c-1.3 0-2.2-1-2.2-2.2v-30.3c0-1.2 1-2.2 2.2-2.2h5.9c4.4 0 8.1 3.6 8.1 8.1v3.4zm-4.5-3.4c0-2-1.6-3.6-3.6-3.6h-3.6v10.5h3.7c2 0 3.6-1.6 3.6-3.6v-3.3h-.1zm-3.6 11.4h-3.6v10.5h3.7c2 0 3.6-1.6 3.6-3.6v-3.4c-.1-1.9-1.7-3.5-3.7-3.5z"/><path class="st0" d="M33.7 33.5c0 .6-.5 1.1-1.1 1.1h-2.2c-.6 0-1.1-.5-1.1-1.1v-32.4c0-.6.5-1.1 1.1-1.1h2.2c.6 0 1.1.5 1.1 1.1v32.4z"/><path class="st0" d="M62.8 8v18.4c0 4.5-3.7 8.1-8.1 8.1-4.5 0-8.1-3.6-8.1-8.1v-18.4c0-4.4 3.7-8 8.1-8 4.5 0 8.1 3.6 8.1 8zm-4.5 0c0-2-1.6-3.6-3.6-3.6s-3.7 1.6-3.7 3.6v18.4c0 2 1.6 3.6 3.7 3.6 2 0 3.6-1.6 3.6-3.6v-18.4z"/><path class="st0" d="M87.3 10.4v-2.4c0-2-1.6-3.6-3.6-3.6s-3.6 1.6-3.6 3.6v18.5c0 2 1.6 3.6 3.6 3.6s3.6-1.6 3.6-3.6v-2.5c0-.6.5-1.1 1.1-1.1h2.2c.6 0 1.1.5 1.1 1.1v2.6c0 4.4-3.7 8-8.1 8-4.5 0-8.1-3.6-8.1-8v-18.6c0-4.4 3.6-8 8.1-8 4.4 0 8.1 3.6 8.1 8v2.4c0 .6-.5 1.1-1.1 1.1h-2.2c-.6 0-1.1-.5-1.1-1.1z"/><path class="st0" d="M120.2 8v18.4c0 4.5-3.7 8.1-8.1 8.1-4.5 0-8.1-3.6-8.1-8.1v-18.4c0-4.4 3.7-8 8.1-8s8.1 3.6 8.1 8zm-4.5 0c0-2-1.6-3.6-3.6-3.6s-3.7 1.6-3.7 3.6v18.4c0 2 1.6 3.6 3.7 3.6 2 0 3.6-1.6 3.6-3.6v-18.4z"/><path class="st0" d="M161 8v25.4c0 .6-.5 1.1-1.1 1.1h-2.2c-.6 0-1.1-.6-1.1-1.1v-25.4c0-2-1.6-3.6-3.7-3.6-2 0-3.6 1.6-3.6 3.6v25.4c0 .6-.5 1.1-1.1 1.1h-2.2c-.6 0-1.1-.6-1.1-1.1v-25.4c0-2-1.6-3.6-3.6-3.6s-3.7 1.6-3.7 3.6v25.4c0 .6-.5 1.1-1.1 1.1h-2.2c-.6 0-1.1-.6-1.1-1.1v-25.4c0-4.4 3.7-8 8.1-8 2.2 0 4.4 1 5.8 2.5 1.4-1.5 3.5-2.5 5.7-2.5 4.5 0 8.2 3.6 8.2 8z"/><path class="st0" d="M190.1 8v3.4c0 4.5-3.7 8.1-8.1 8.1h-3.7v14c0 .6-.5 1.1-1.1 1.1h-2.2c-.6 0-1.1-.6-1.1-1.1v-32.4c0-.6.6-1.1 1.1-1.1h7c4.4 0 8.1 3.6 8.1 8zm-4.5 0c0-2-1.6-3.6-3.6-3.6h-3.7v10.6h3.7c2 0 3.6-1.6 3.6-3.6v-3.4z"/><path class="st0" d="M213.1 31.2v2.2c0 .6-.5 1.1-1.1 1.1h-8.3c-1.3 0-2.2-1-2.2-2.2v-31.2c0-.6.5-1.1 1.1-1.1h2.2c.6 0 1.1.5 1.1 1.1v29h6c.7 0 1.2.5 1.2 1.1z"/><path class="st0" d="M229.7 4.5v10.5h6.1c.6 0 1.1.5 1.1 1.1v2.2c0 .6-.5 1.1-1.1 1.1h-6.1v10.6h6.1c.6 0 1.1.5 1.1 1.1v2.2c0 .6-.5 1.1-1.1 1.1h-8.3c-1.3 0-2.2-1-2.2-2.2v-30c0-1.3 1-2.2 2.2-2.2h8.4c.6 0 1.1.5 1.1 1.1v2.2c0 .6-.5 1.1-1.1 1.1l-6.2.1z"/><path class="st0" d="M264.6 10.1l-4.1 7.3 4.1 7.3c.9 1.3 1.4 2.8 1.4 4.5v4.3c0 .6-.5 1.1-1.1 1.1h-2.2c-.6 0-1.1-.6-1.1-1.1v-4.3c0-.4-.1-.8-.2-1.2l-3.4-6-3.4 6c-.1.3-.2.8-.2 1.2v4.3c0 .6-.5 1.1-1.1 1.1h-2.2c-.6 0-1.1-.6-1.1-1.1v-4.3c0-1.7.5-3.2 1.4-4.5l4.1-7.3-4.1-7.3c-.8-1.3-1.3-2.8-1.3-4.5v-4.5c0-.6.5-1.1 1.1-1.1h2.2c.6 0 1.1.5 1.1 1.1v4.5c0 .4.1.8.2 1.2l3.4 5.9 3.4-5.9c.1-.4.2-.8.2-1.2v-4.5c0-.6.5-1.1 1.1-1.1h2.2c.6 0 1.1.5 1.1 1.1v4.5c-.1 1.7-.6 3.3-1.5 4.5z"/><path class="st0" d="M283.4 33.5c0 .6-.5 1.1-1.1 1.1h-2.2c-.6 0-1.1-.5-1.1-1.1v-32.4c0-.6.5-1.1 1.1-1.1h2.2c.6 0 1.1.5 1.1 1.1v32.4z"/><path class="st0" d="M308.6 1.1v2.2c0 .6-.5 1.1-1.1 1.1h-3.2v29c0 .6-.5 1.1-1.1 1.1h-2.2c-.6 0-1.1-.6-1.1-1.1v-29h-3.2c-.6 0-1.1-.5-1.1-1.1v-2.2c0-.6.5-1.1 1.1-1.1h10.8c.6 0 1.1.5 1.1 1.1z"/><path class="st0" d="M336.3 1.1v10.3c0 3.7-2.5 6.8-5.8 7.8v14.3c0 .6-.6 1.1-1.1 1.1h-2.2c-.6 0-1.1-.6-1.1-1.1v-14.4c-3.4-1-5.9-4.1-5.9-7.8v-10.2c0-.6.5-1.1 1.1-1.1h2.2c.6 0 1.1.5 1.1 1.1v10.3c0 2 1.6 3.6 3.7 3.6 2 0 3.6-1.6 3.6-3.6v-10.3c0-.6.5-1.1 1.1-1.1h2.2c.6 0 1.1.5 1.1 1.1z"/><path class="st1" d="M335.6 63h-335.6v-21.4h335.6v21.4zm-315.3-4.3h2.2v-13h-2.3l.1 13zm30.8 0h2.2v-9.5h.1l5.9 9.5h2.4v-13h-2.2v9.5l-6-9.4h-2.4v12.9zm38.2-4.3c.1 3.2 2.4 4.6 5.4 4.6 2.6 0 5.2-1.2 5.2-4.1 0-1.3-.8-2.8-2.5-3.3-.7-.2-3.5-.9-3.7-1-.9-.3-1.5-.8-1.5-1.7 0-1.3 1.3-1.7 2.4-1.7 1.6 0 2.7.6 2.8 2.3h2.3c0-2.7-2.3-4.1-5-4.1-2.3 0-4.7 1.2-4.7 3.8 0 1.3.7 2.7 2.9 3.3 1.8.5 3 .7 3.9 1.1.5.2 1.1.6 1.1 1.6s-.7 2-2.7 2c-1.8 0-3.3-.8-3.3-2.8h-2.6zm37.2-6.7h4.1v11h2.3v-11h4.1v-2h-10.5v2zm37.8 11h2.3v-13h-2.3v13zm29.7-11h4.1v11h2.3v-11h4.1v-2h-10.5v2zm37.7 6.4c0 3.3 2.1 5 5.3 5s5.3-1.7 5.3-5v-8.3h-2.3v7.5c0 1.7-.1 3.8-3 3.8s-3-2-3-3.8v-7.5h-2.3v8.3zm37.8-6.4h4.1v11h2.3v-11h4.1v-2h-10.5v2zm37.9 11h9.5v-2h-7.2v-3.7h6.5v-1.9h-6.5v-3.4h7.1v-2h-9.3v13h-.1z"/></svg>